# xmcd CD database file
#
# Track frame offsets:
#	150
#	19407
#	39733
#	57060
#	71696
#	85469
#	100577
#	111278
#	128595
#	143865
#	164125
#	188937
#	203114
#	222557
#	240810
#
# Disc length: 3499 seconds
#
# Revision: 0
# Processed by: cddbd v1.5.2PL0 Copyright (c) Steve Scherf et al.
# Submitted via: CDex 1.51
#
DISCID=db0da90f
DTITLE=IZEL - JAZZNAGME
DYEAR=2010
DGENRE=Jazz
TTITLE0=GURBET
TTITLE1=AKSAM GUNESI
TTITLE2=HAYDAR HAYDAR
TTITLE3=AH BU GONUL SARKILARI
TTITLE4=KARA SEVDA
TTITLE5=YINE YAKMIS YAR MEKTUBUN UCUNU
TTITLE6=AKSAM OLDU HUZUNLENDIM BEN YINE
TTITLE7=MAZIYE GOTUR
TTITLE8=VEDA BUSESI
TTITLE9=SIIRE GAZELE
TTITLE10=YADELLER
TTITLE11=AT KADEHI ELINDEN
TTITLE12=BIR BAHAR AKSAMI
TTITLE13=BU NE SEVGI AH BU NE IZDIRAP
TTITLE14=KAL BU GECE
EXTD=YEAR: 2010
EXTT0=
EXTT1=
EXTT2=
EXTT3=
EXTT4=
EXTT5=
EXTT6=
EXTT7=
EXTT8=
EXTT9=
EXTT10=
EXTT11=
EXTT12=
EXTT13=
EXTT14=
PLAYORDER=
